<?xml version="1.0" standalone="no"?>
<!DOCTYPE svg PUBLIC "-//W3C//DTD SVG 20010904//EN"
 "http://www.w3.org/TR/2001/REC-SVG-20010904/DTD/svg10.dtd">
<svg version="1.0" xmlns="http://www.w3.org/2000/svg"
 width="1024.000000pt" height="1024.000000pt" viewBox="0 0 1024.000000 1024.000000"
 preserveAspectRatio="xMidYMid meet">
<metadata>
Created by potrace 1.14, written by Peter Selinger 2001-2017
</metadata>
<g transform="translate(0.000000,1024.000000) scale(0.100000,-0.100000)"
fill="#000000" stroke="none">
<path d="M150 5641 l0 -780 218 0 217 0 0 264 c0 240 2 266 18 282 17 17 60
18 742 18 677 0 726 -1 742 -18 16 -15 18 -43 18 -280 l1 -262 217 -1 217 -2
1 34 c0 44 0 1478 0 1504 -1 20 -6 20 -218 18 l-218 -3 0 -250 c-1 -137 -4
-260 -9 -272 -4 -13 -19 -26 -34 -30 -27 -6 -1402 -7 -1435 0 -40 8 -42 18
-42 290 l0 262 -218 3 -217 2 0 -779z"/>
<path d="M3827 6396 c-65 -34 -141 -126 -473 -568 -175 -232 -322 -427 -326
-433 -51 -62 -398 -523 -398 -528 0 -3 126 -5 280 -5 l280 0 152 202 c83 110
201 266 261 346 215 283 270 340 318 321 52 -20 97 -75 554 -683 l140 -186
275 0 c151 0 278 2 283 5 5 3 0 15 -11 27 -11 11 -124 161 -253 331 -652 867
-742 985 -817 1073 -94 109 -183 142 -265 98z"/>
<path d="M5263 5641 l0 -779 213 0 c191 0 214 2 215 17 1 9 2 120 3 248 0 127
4 235 8 239 4 4 13 2 20 -3 7 -5 36 -19 63 -31 28 -11 108 -48 178 -81 70 -34
130 -61 132 -61 2 0 55 -24 117 -54 128 -61 345 -162 493 -229 l100 -46 296 1
c322 1 347 4 372 55 30 60 -15 121 -128 172 -27 13 -81 38 -120 56 -116 55
-240 113 -445 207 -107 50 -229 106 -270 125 -119 56 -251 117 -307 143 -29
13 -53 27 -53 30 0 4 44 26 98 50 96 43 159 71 290 131 37 17 105 48 152 69
94 42 173 78 268 121 34 16 102 47 150 68 193 85 296 135 324 155 28 20 55 76
50 101 -2 14 -17 36 -33 50 l-29 24 -319 1 -319 0 -64 -28 c-444 -203 -1016
-462 -1020 -462 -2 0 -4 109 -4 243 l0 242 -216 3 -216 2 1 -779z"/>
<path d="M8774 6400 c-59 -26 -137 -113 -324 -360 -93 -124 -173 -229 -178
-235 -4 -5 -69 -91 -143 -190 -73 -99 -139 -186 -146 -195 -23 -29 -120 -156
-262 -345 -79 -104 -148 -195 -153 -202 -8 -9 55 -12 274 -11 l285 1 264 349
c312 413 302 400 359 459 62 64 83 73 117 55 46 -24 98 -86 373 -451 145 -192
275 -364 289 -381 l24 -32 283 0 283 0 -62 83 c-71 95 -480 638 -761 1010
-219 289 -256 336 -311 388 -75 71 -141 89 -211 57z"/>
<path d="M2420 4490 c-37 -10 -101 -46 -131 -72 -26 -22 -91 -102 -134 -162
-11 -16 -43 -58 -70 -95 -108 -142 -275 -371 -275 -376 0 -3 76 -5 168 -5
l168 0 151 204 c85 114 160 205 171 208 25 7 73 -16 90 -42 7 -11 71 -99 142
-195 l130 -175 171 0 170 0 -23 33 c-108 152 -428 569 -456 595 -80 71 -191
105 -272 82z"/>
<path d="M3536 4491 c-1 -3 -2 -141 -1 -306 1 -324 4 -348 54 -382 24 -17 66
-18 623 -19 649 -1 639 -2 676 55 15 22 17 66 19 342 l2 316 -138 0 -139 1 0
-236 c0 -231 -1 -237 -22 -254 -20 -17 -53 -18 -391 -18 -356 0 -370 1 -389
20 -19 19 -20 33 -20 254 l0 234 -135 -1 c-75 0 -137 -3 -139 -6z"/>
<path d="M5260 4388 c0 -96 2 -108 18 -108 381 -1 460 -5 482 -25 50 -44 59
-112 60 -407 l0 -68 140 0 140 0 1 163 c2 231 9 268 60 311 28 24 31 25 236
26 114 0 208 2 210 4 3 3 6 142 4 187 l-1 25 -675 0 -675 1 0 -109z"/>
<path d="M7041 4478 c-62 -31 -65 -48 -65 -338 -1 -288 3 -309 63 -339 34 -17
74 -19 626 -18 655 1 632 -2 667 66 14 29 17 70 18 287 1 278 -4 307 -56 341
-26 17 -65 18 -621 19 -565 1 -596 0 -632 -18z m1009 -206 c20 -16 22 -28 24
-114 2 -118 -6 -154 -36 -162 -13 -3 -186 -6 -385 -6 -439 0 -403 -13 -403
148 0 109 7 133 40 145 8 3 178 6 376 6 334 1 363 0 384 -17z"/>
</g>
</svg>
