<svg width="43" height="51" viewBox="0 0 43 51" fill="none" xmlns="http://www.w3.org/2000/svg">
<path opacity="0.77" d="M39.7152 18.8886L8.95697 0.819662C8.07774 0.290744 7.07647 0.00794198 6.05491 0C4.44905 0 2.90896 0.648636 1.77344 1.80322C0.637927 2.9578 0 4.52375 0 6.15657V44.9357C0.000204232 46.0192 0.285873 47.0829 0.827305 48.0162C1.36874 48.9495 2.14616 49.7183 3.07875 50.2426C4.01134 50.7669 5.06504 51.0276 6.13029 50.9977C7.19554 50.9677 8.23346 50.6482 9.13611 50.0722L39.9302 30.291C40.8877 29.6818 41.6736 28.8306 42.2114 27.8207C42.7492 26.8107 43.0204 25.6762 42.9988 24.5279C42.9771 23.3796 42.6633 22.2566 42.0879 21.2683C41.5124 20.28 40.695 19.4602 39.7152 18.8886Z" fill="#FAFBFE"/>
</svg>
